<?xml version="1.0" encoding="utf-8"?>
<!-- Generator: Adobe Illustrator 25.3.0, SVG Export Plug-In . SVG Version: 6.00 Build 0)  -->
<svg version="1.1" id="Layer_1"
  xmlns="http://www.w3.org/2000/svg"
  xmlns:xlink="http://www.w3.org/1999/xlink" x="0px" y="0px" viewBox="0 0 324 265" style="enable-background:new 0 0 324 265;" xml:space="preserve">
  <style type="text/css">
	.st0{fill:#E5D50E;}
  </style>
  <g>
    <path class="st0" d="M237.5,56.1L258.7,228L152,151.8l-46.1,54.1l-2.4-19.8l-19,2.3l4.6,37.2L67,251.6L45.9,79.7
		c-4-32.9,19.3-62.8,52.2-66.9l72.5-8.9C203.6-0.2,233.5,23.2,237.5,56.1z"/>
    <path class="st0" d="M213.1,242.8c-9.3,0.9-19,2.2-28.9,3.9c-2.8-7.8-5.6-15.6-8.3-23.4c10.9-2.5,21.7-4.9,32.6-7.4
		C210,224.9,211.6,233.9,213.1,242.8z"/>
    <path class="st0" d="M150.7,253.6c-9.6,2.4-18.8,5-27.4,7.7c-2.5-10.5-5.1-21-7.6-31.6c11.1-1.3,22.1-2.6,33.2-3.9L150.7,253.6z"/>
  </g>
</svg>
