<?xml version="1.0" encoding="utf-8"?>
<!-- Generator: Adobe Illustrator 25.3.0, SVG Export Plug-In . SVG Version: 6.00 Build 0)  -->
<svg version="1.1" id="Layer_1" xmlns="http://www.w3.org/2000/svg" xmlns:xlink="http://www.w3.org/1999/xlink" x="0px" y="0px"
	 viewBox="0 0 324 324" style="enable-background:new 0 0 324 324;" xml:space="preserve">
<style type="text/css">
	.st0{fill:#E5D50E;}
</style>
<g>
	<path class="st0" d="M38.8,312.3v-12.5c0-2.2-0.6-4.5-3.9-4.5c-2.6,0-5,2.2-5,4.5v12.5h-3.5v-27.7h3.5v10.6h0c0.7-1,3-3.1,6.1-3.1
		c4.3,0,6.3,2.4,6.3,6.6v13.6H38.8z"/>
	<path class="st0" d="M56.6,312.8c-6.2,0-8.4-3.9-8.4-10.2c0-6.2,2.3-10.4,8.5-10.4s8.4,4,8.4,10.3
		C65.2,308.6,62.8,312.8,56.6,312.8z M61.5,301c0-3.7-1.7-6-4.8-6s-4.8,2.4-4.8,6.1v2.8c0,3.7,1.7,6,4.8,6c3.1,0,4.8-2.4,4.8-6.1
		V301z"/>
	<path class="st0" d="M94.6,312.3v-12.5c0-2.2-0.5-4.5-3.5-4.5c-2.4,0-4.6,2.2-4.6,4.5v12.5h-3.5v-12.5c0-2.2-0.5-4.5-3.5-4.5
		c-2.4,0-4.6,2.2-4.6,4.5v12.5h-3.5v-19.7h3.4v2.7h0c0.7-1.1,2.8-3.2,5.8-3.2c3.1,0,4.6,1.3,5.4,3.5c0.7-1.1,3.1-3.5,6.2-3.5
		c4.4,0,6,2.6,6,6.6v13.6H94.6z"/>
	<path class="st0" d="M119.9,303.3h-12.4v0.7c0,3,1.4,5.7,5.4,5.7c2.2,0,4.2-0.6,5.9-1.5l0.2,3c-1.5,0.9-3.8,1.5-6.5,1.5
		c-6.9,0-8.6-4.3-8.6-10.3c0-6.1,2.5-10.4,8.6-10.4c4.2,0,7.5,2.1,7.5,9C120,301.4,119.9,302.7,119.9,303.3z M112.4,294.8
		c-3.5,0-5,3-5,5.9h9.1C116.6,297.7,115.9,294.8,112.4,294.8z"/>
	<path class="st0" d="M134.8,312.8c-3.2,0-4.8-1.8-5.5-3h0v10.5h-3.5v-27.7h3.3v2.8h0c1.2-1.7,2.8-3.3,6.1-3.3
		c5.5,0,7.3,4.5,7.3,10.3C142.4,308,140.5,312.8,134.8,312.8z M138.8,301.1c0-3.7-1.8-6-4.7-6c-2.7,0-4.9,2.6-4.9,5.4v3.6
		c0,3.3,2.4,5.6,4.7,5.6c3.4,0,4.8-2.8,4.8-6.2V301.1z"/>
	<path class="st0" d="M159.5,312.3l-0.2-2.9h0c-0.6,1.1-2.7,3.4-6.1,3.4c-4.3,0-6-2.7-6-5.7c0-4.1,3.3-6.5,8.7-6.5
		c1.4,0,2.8,0.2,3.3,0.2v-2.3c0-2.5-1.6-3.5-4.3-3.5c-2,0-4,0.6-5.9,1.5l-0.2-3c1.8-0.9,3.9-1.5,6.8-1.5c4.2,0,7.2,1.4,7.2,6.5v8.2
		c0,2,0.1,4.5,0.2,5.4H159.5z M159.1,303.4c-0.4-0.1-1.5-0.2-3-0.2c-2.4,0-5.3,0.9-5.3,3.7c0,2,1.3,3.1,3.3,3.1c2.6,0,5-2.5,5-5.3
		V303.4z"/>
	<path class="st0" d="M185.5,298.2v13.7c0,6-3.8,9.1-9.2,9.1c-3.1,0-5.1-0.9-6.2-1.5l0.2-3.2c1.3,0.8,3.7,1.7,5.7,1.7
		c3.6,0,5.9-1.5,5.9-6.1v-2.6h0c-1.1,1.5-2.6,3-5.9,3c-5.5,0-7.2-4.4-7.2-10c0-5.5,1.9-10.2,7.6-10.2c3.2,0,4.9,1.7,5.7,3.1h0
		l0.2-2.6h3.3C185.6,293.3,185.5,295.4,185.5,298.2z M181.9,300.6c0-3.2-2.4-5.4-4.8-5.4c-3.4,0-4.8,2.7-4.8,6v2.4
		c0,3.5,1.8,5.7,4.7,5.7c2.8,0,4.9-2.4,4.9-5.2V300.6z"/>
	<path class="st0" d="M207.3,303.3h-12.4v0.7c0,3,1.4,5.7,5.4,5.7c2.2,0,4.2-0.6,5.9-1.5l0.2,3c-1.5,0.9-3.8,1.5-6.5,1.5
		c-6.9,0-8.6-4.3-8.6-10.3c0-6.1,2.5-10.4,8.6-10.4c4.2,0,7.5,2.1,7.5,9C207.4,301.4,207.4,302.7,207.3,303.3z M199.8,294.8
		c-3.5,0-5,3-5,5.9h9.1C204,297.7,203.3,294.8,199.8,294.8z"/>
	<path class="st0" d="M223.1,295.6c-0.2,0-0.7-0.1-1.3-0.1c-3.1,0-5.2,2.6-5.2,5v11.8h-3.5v-19.7h3.4v3.1h0c0.2-0.4,1.8-3.6,5.9-3.6
		c0.4,0,0.7,0,0.9,0.1L223.1,295.6z"/>
	<path class="st0" d="M230.4,289.4c-1.3,0-2.4-1.1-2.4-2.4s1.1-2.4,2.4-2.4s2.4,1.1,2.4,2.4S231.7,289.4,230.4,289.4z M228.6,312.3
		v-19.7h3.5v19.7H228.6z"/>
	<path class="st0" d="M243.4,309.3l10,0v2.9h-15.6l10.3-16.7l-8.9,0v-2.9h14.4L243.4,309.3z"/>
	<path class="st0" d="M274.2,303.3h-12.4v0.7c0,3,1.4,5.7,5.4,5.7c2.2,0,4.2-0.6,5.9-1.5l0.2,3c-1.5,0.9-3.8,1.5-6.5,1.5
		c-6.9,0-8.6-4.3-8.6-10.3c0-6.1,2.5-10.4,8.6-10.4c4.2,0,7.5,2.1,7.5,9C274.3,301.4,274.2,302.7,274.2,303.3z M266.7,294.8
		c-3.5,0-5,3-5,5.9h9.1C270.9,297.7,270.2,294.8,266.7,294.8z"/>
	<path class="st0" d="M290,295.6c-0.2,0-0.7-0.1-1.3-0.1c-3.1,0-5.2,2.6-5.2,5v11.8h-3.5v-19.7h3.4v3.1h0c0.2-0.4,1.8-3.6,5.9-3.6
		c0.4,0,0.7,0,0.9,0.1L290,295.6z"/>
	<path class="st0" d="M294.2,312.8c-1.5,0-2.6-1.2-2.6-2.6s1.2-2.6,2.6-2.6s2.6,1.2,2.6,2.6S295.7,312.8,294.2,312.8z"/>
</g>
<g>
	<path class="st0" d="M237.5,56.1L258.7,228L152,151.8l-46.1,54.1l-2.4-19.8l-19,2.3l4.6,37.2L67,251.6L45.9,79.7
		c-4-32.9,19.3-62.8,52.2-66.9l72.5-8.9C203.6-0.2,233.5,23.2,237.5,56.1z"/>
	<path class="st0" d="M213.1,242.8c-9.3,0.9-19,2.2-28.9,3.9c-2.8-7.8-5.6-15.6-8.3-23.4c10.9-2.5,21.7-4.9,32.6-7.4
		C210,224.9,211.6,233.9,213.1,242.8z"/>
	<path class="st0" d="M150.7,253.6c-9.6,2.4-18.8,5-27.4,7.7c-2.5-10.5-5.1-21-7.6-31.6c11.1-1.3,22.1-2.6,33.2-3.9L150.7,253.6z"/>
</g>
</svg>
